<?xml version="1.0" encoding="UTF-8"?>
<svg viewBox="0 0 640 480" xmlns="http://www.w3.org/2000/svg">
 <g fill-rule="evenodd">
  <path d="m537.95 184.48c0.14679 22.724-15.338 42.845-31.699 57.403-23.666 20.89-60.04 34.383-88.818 45.389 48.644-3.4322 110.66-13.907 137.39-43.673 13.367-14.913 27.756-37.638 23.227-61.664-3.871-20.712-30.166-33.021-58.068-32.548 7.5972 11.422 17.823 18.937 17.968 35.093zm-269.45 157.59c2.6292 1.8342 4.5288 8.8176 8.3987 6.8055-5.7695-6.0356 1.3885-14.321 1.096-21.363 22.643-21.186 51.348-35.271 83.486-48.822 31.773-13.492 65.884-24.441 90.864-43.674 0.2196-1.0651 1.6071-1.7752-1.096-1.7161-55.512 36.81-178.51 31.128-182.75 108.77zm-62.379-17.161c-35.06 6.1553-96.925 3.7873-124.68 17.162-20.014 13.492 3.1413 23.08 11.614 35.921 8.4726 12.901 13.731 29.175 20.086 43.674 6.4283 14.676 12.417 29.885 19.064 44.562 9.9329 22.251 21.109 44.384 26.368 68.469 3.5795 16.214 0.94926 30.418 13.731 37.697 31.408 17.872 105.11 12.073 139.51 0.82892 4.6016-8.5223 9.2033-17.043 10.518-28.229 21.548-0.414 24.25-19.232 35.937-29.116 5.7705-4.9114 17.384-9.7047 26.442-15.445 24.541-15.505 58.652-39.65 61.282-69.358 1.4603-16.451-6.9384-36.512-25.345-42.786-35.498-12.132-28.268 24.5-41.196 33.376 2.4106-13.67 8.9118-24.145 8.4007-40.241-0.65781-4.2612-9.6414-1.8342-10.519-5.9774 9.4228-7.8705 29.948-6.2134 27.464-21.422-1.3874-8.3445-19.356-14.972-33.818-18.818-24.323-6.4504-49.96-8.7594-78.228-7.6934-4.967 3.0772-9.7872 6.3323-10.518 12.841 24.907 4.0242 59.09 5.2082 84.509 5.9773-19.21-6.4496-46.382-6.3906-68.66-10.297 32.211 0.53131 64.642 1.8932 81.368 13.729-24.323 19.41-81.149 18.937-132.13 17.102-37.177-1.3021-90.571 1.1832-122.56-6.8645-8.9118-2.19-24.251-5.9773-17.969-16.215 4.3102 0.23697 4.2373 5.9773 9.5686 6.8054 3.5066 0.5928 14.754-3.9644 21.109-5.1484 23.957-4.2013 53.247-2.8402 76.037-5.0893-1.2438-2.8411 0.50906-16.807-7.3796-15.446zm282.16-208.07c10.81 20.89-1.3146 49.946-10.591 59.059-22.571 22.192-57.484 36.159-101.46 46.278-20.67 4.7335-42.582 7.6344-62.304 13.67-32.211 9.8827-69.755 24.855-83.486 47.993-13.074 22.073-24.323 69.475 10.591 75.334 0.2196-6.5095-4.4549-10.771-5.3313-17.989-3.3599-27.873 10.736-48.586 26.441-62.493 19.72-12.487 45.286-17.753 75.012-22.251 41.196-6.2725 82.684-15.563 111.97-30.832 16.214-8.4617 28.048-18.759 45.432-27.4-10.299 27.341-36.448 41.78-64.423 55.628-14.827 7.3966-30.385 15.622-44.409 21.422-14.608 6.0356-34.11 10.77-46.454 17.989-3.7252 2.1901-10.81 6.8645-8.4726 8.5814 79.323-17.28 183.84-36.927 192.32-110.49 1.5342-13.551-0.43823-22.724-7.3766-29.116-2.4835 10.298-6.062 24.204-14.827 26.571 5.1127-17.043 20.305-38.466 11.614-58.232-5.1137-11.718-18.188-20.652-31.699-25.743-1.0231 0-1.2428-0.65103-2.1191-0.82896 3.795 6.1569 7.5931 9.057 9.5666 12.844zm-386.76 488.1c31.699 14.321 90.427 19.883 144.77 17.989 34.183-1.243 73.187 1.4202 96.122-11.125-77.277 11.066-172.74 2.0122-240.89-6.8644zm-6.3544-241.51c8.6193 5.4452 40.757 8.8176 49.669 4.3202-27.537 0.059021-43.606-9.2317-56.022-21.422h-2.0453c-1.8267 5.3845 3.2132 13.789 8.3987 17.102zm53.905 19.706c55.22 5.9773 134.54 9.0545 180.7-2.5451-78.519 4.2604-174.93 5.3263-231.4-12.842 4.6735 13.434 30.823 13.257 50.69 15.387zm-27.463 11.126c20.816 2.7812 48.937 4.3202 70.777 3.4322-17.457-8.4035-49.742-4.7933-70.777-10.298v6.8653zm1.0221 12.841c15.485 4.9114 39.077 3.1953 60.259 3.4331-2.9227-7.5746-13.001-4.0833-22.204-4.2612-12.199-0.29517-28.706-5.4443-38.056-5.9765v6.8047zm261.05 78.825c14.754-18.109 52.224-33.554 48.573-63.38-0.73071-6.1552-5.6976-12.546-11.614-13.73-26.806-5.2664-27.39 22.074-46.528 25.684-11.832 31.779-33.088 60.48-42.218 91.667 12.564-17.22 26.662-33.198 51.788-40.241zm-256.81-66.812c15.266 7.5155 40.028 2.1901 62.378 3.4331-14.462-7.6934-43.095-3.9062-62.378-7.6934v4.2604zm5.3333 17.103c20.525-1.6571 48.28 3.1363 62.304-1.7161-19.21-4.1432-45.87-2.1901-64.423-6.8055-0.72966 3.9644 1.6071 5.5034 2.1192 8.5216zm6.2816 13.73c20.525-0.35584 40.099 2.0703 57.117 0-14.462-6.9244-39.953-4.7942-60.258-6.8653-0.87639 3.8463 2.4835 4.2612 3.1413 6.8653zm6.3544 13.67c14.243-0.41406 38.565 4.4383 47.55-2.5451-16.069-1.539-37.033-3.6692-51.787-3.433 2.2649 1.3021 3.0684 3.7881 4.2373 5.9782zm6.3555 14.557c14.024-1.7752 37.104 3.8463 44.408-3.4331-13-3.1363-34.694-3.8463-47.548-4.2604 1.7518 2.0129 2.701 4.6163 3.1403 7.6935zm6.3544 13.73c14.68 1.7162 32.869 0.888 46.454-0.88715-9.5686-8.1083-34.914-0.7691-48.573-6.8063-0.51106 3.5512 3.0674 3.7282 2.1192 7.6934zm11.612 17.102c16.509-1.7161 38.713 1.1242 48.573-5.9765-16.945-1.3611-37.251-0.059021-52.809-2.6041-0.72968 4.6154 3.1413 5.5034 4.2363 8.5806zm3.1413 12.842c15.485 0.47308 40.32 2.1302 49.669-5.1484-15.339-1.7752-35.571 0.29596-50.691-1.7161-2.4106 2.0704 2.3378 3.1953 1.0221 6.8645zm3.2142 12.013c12.783 3.6093 36.375 4.0825 45.432-2.6041-14.462-1.7161-30.459-2.131-45.432-3.3732v5.9774zm2.1181 10.238c9.5686 5.8585 38.128 7.9297 49.668 1.7162-13.658-4.0243-33.453-3.1363-49.668-5.0894v3.3732zm0 17.989c19.283 5.3263 57.264 7.2794 82.39 4.3202 4.6745-0.59204 8.9118-1.4791 11.615-4.3202-35.864 0-69.39-2.0121-97.218-8.5216-0.51208 4.1423 3.287 4.7344 3.2131 8.5216zm234.54-137.83c-21.474 12.013-39.368 26.868-43.313 53.082 13.367-4.0234 23.154-10.889 32.722-17.989 0.73065-5.6813 5.2584-8.3444 10.591-10.298 3.4338-6.8054 10.738-14.439 7.3776-23.967-3.6514 0.71005-4.0167-1.2422-7.3776-0.82895z" fill="#3f1f01"/>
  <path d="m388.12 525.34c14.7 1.877 28.285 4.908 39.648 9.96-28.127 4.836-60.385-14.651-83.981-1.082 19.783 6.135 48.545 3.969 65.47 12.558-22.088 4.908-50.532-8.805-65.47 4.114 12.553 2.887 27.728 3.464 39.091 7.361-13.905 5.485-41.792-1.804-52.916 6.279 8.024 6.279 23.598 1.371 35.674 2.094-1.5885 7.578-15.175 4.33-22.962 6.278 41.633 2.021 99.395-9.382 124.1-30.313 0.23889-5.341-4.5289-6.352-4.6092-11.476 7.3107 2.31 11.838 9.815 9.2162 18.765-2.4626 8.1559-26.457 15.373-41.395 18.838-55.696 12.919-132.61 23.384-206.1 23.096v0.43298c-66.105-1.731-132.92-11.187-182.82-22.879-14.936-3.465-38.931-10.682-41.316-18.766-2.7796-8.949 1.8274-16.455 9.1381-18.765-0.07926 5.124-4.7667 6.063-4.6092 11.403 24.71 21.004 82.472 32.408 124.1 30.315-7.7863-1.877-21.452 1.371-22.961-6.279 12.077-0.72198 27.729 4.258 35.595-2.094-11.044-8.011-38.931-0.79401-52.757-6.207 11.283-3.969 26.458-4.475 39.012-7.361-14.936-12.991-43.301 0.79401-65.468-4.114 17.003-8.589 45.764-6.495 65.468-12.558-23.598-13.569-55.855 5.846-83.902 1.01 23.916-10.609 57.842-12.197 92.006-13.568 0.31705-19.776-25.425-17.178-44.89-15.662-33.926 2.599-80.884 11.548-98.84 21.941-5.8796 3.464-12.475 11.98-12.633 17.755-0.87407 22.951 39.329 30.602 62.052 37.603 21.929 6.712 41.157 10.609 64.356 13.568 13.268 1.66 24.948 6.856 37.9 8.301 20.737 2.525 48.704 1.01 69.044 4.258 6.0382 0.93799 12.077 1.371 18.353 1.516l-0.1585-0.649c9.694 0.21698 19.068-0.14502 28.127-1.588 20.34-3.176 48.307-1.732 69.044-4.114 12.951-1.588 24.631-6.712 37.9-8.372 23.2-3.031 42.428-6.929 64.356-13.568 22.724-6.929 63.006-14.651 62.052-37.603-0.15958-5.847-6.6744-14.363-12.633-17.755-13.825-8.084-44.732-15.157-73.732-19.199-11.601-1.588-35.039-6.351-39.17 8.445-2.7014 9.671 15.017 7.578 20.816 7.938 0.23892 0.071045 0.55704 0.071045 0.79483 0.143z" fill="#472200"/>
 </g>
</svg>
